<svg xmlns="http://www.w3.org/2000/svg" viewBox="0 0 1912 924" preserveAspectRatio="xMidYMid" width="1912" height="924" style="shape-rendering: auto; display: block; background: rgb(163, 186, 223);" xmlns:xlink="http://www.w3.org/1999/xlink"><g style="transform:translate(956.0px,462.0px) scale(1,-1) translate(-956.0px,-462.0px)"><defs>
<linearGradient y2="1" y1="0" x2="0" x1="0" id="lg-bk-n2c88aimwtj">
  <stop offset="0" stop-opacity="0" stop-color="#dffff9"></stop>
  <stop offset="0.8250000000000001" stop-opacity="1" stop-color="#dffff9"></stop>
</linearGradient>
<linearGradient y2="1" y1="0" x2="0" x1="0" id="lg-jg6mq6wfbyj">
  <stop offset="0" stop-color="rgba(95, 202, 255, 0.394)"></stop>
  <stop offset="0.37" stop-color="#0075fc"></stop>
  <stop offset="1" stop-color="#003067"></stop>
</linearGradient>
</defs>
<rect fill="url(#lg-bk-n2c88aimwtj)" height="924" width="1912" y="0" x="0"></rect><g>
<path opacity="0.4" fill="url(#lg-jg6mq6wfbyj)" d="M0 609.84
C956 609.84 956 700.9464 1912 700.9464
C2868 700.9464 2868 609.84 3824 609.84
C4780 609.84 4780 700.9464 5736 700.9464
C6692 700.9464 6692 609.84 7648 609.84
L7648 924 L0 924 Z">
  <animateTransform values="-3824 0;0 0" begin="0s" keyTimes="0;1" repeatCount="indefinite" dur="30s" type="translate" attributeName="transform"></animateTransform>
</path>
<animateTransform values="0 0;0 10; 0" begin="0s" keyTimes="0;0.5;1" keySplines="0.3 0 0.7 1;0.3 0 0.7 1" calcMode="spline" repeatCount="indefinite" dur="30s" type="translate" attributeName="transform"></animateTransform>
</g><g>
<path opacity="0.4" fill="url(#lg-jg6mq6wfbyj)" d="M0 609.84
C956 609.84 956 700.9464 1912 700.9464
C2868 700.9464 2868 609.84 3824 609.84
C4780 609.84 4780 700.9464 5736 700.9464
C6692 700.9464 6692 609.84 7648 609.84
L7648 924 L0 924 Z">
  <animateTransform values="-3824 0;0 0" begin="-0.46666666666666673s" keyTimes="0;1" repeatCount="indefinite" dur="30s" type="translate" attributeName="transform"></animateTransform>
</path>
<animateTransform values="0 0;0 10; 0" begin="-3.3333333333333335s" keyTimes="0;0.5;1" keySplines="0.3 0 0.7 1;0.3 0 0.7 1" calcMode="spline" repeatCount="indefinite" dur="30s" type="translate" attributeName="transform"></animateTransform>
</g><g>
<path opacity="0.4" fill="url(#lg-jg6mq6wfbyj)" d="M0 609.84
C956 609.84 956 700.9464 1912 700.9464
C2868 700.9464 2868 609.84 3824 609.84
C4780 609.84 4780 700.9464 5736 700.9464
C6692 700.9464 6692 609.84 7648 609.84
L7648 924 L0 924 Z">
  <animateTransform values="-3824 0;0 0" begin="-0.9333333333333335s" keyTimes="0;1" repeatCount="indefinite" dur="30s" type="translate" attributeName="transform"></animateTransform>
</path>
<animateTransform values="0 0;0 10; 0" begin="-6.666666666666667s" keyTimes="0;0.5;1" keySplines="0.3 0 0.7 1;0.3 0 0.7 1" calcMode="spline" repeatCount="indefinite" dur="30s" type="translate" attributeName="transform"></animateTransform>
</g><g></g></g><!-- [ldio] generated by https://loading.io --></svg>